<svg width="40" height="40" viewBox="0 0 40 40" fill="none" xmlns="http://www.w3.org/2000/svg">
<g clip-path="url(#clip0)">
<g clip-path="url(#clip1)">
<path d="M-0.00109863 34.8423C-0.00109863 37.6911 2.30812 40 5.15656 40H34.8411C37.69 40 39.9989 37.6908 39.9989 34.8423V5.15781C39.9989 2.30891 37.6897 0 34.8412 0H5.15671C2.30781 0 -0.00109863 2.30922 -0.00109863 5.15766V34.8422V34.8423Z" fill="#563D7C"/>
<path d="M16.5861 17.6934V12.0289H21.5722C22.0472 12.0289 22.505 12.0684 22.946 12.1477C23.3869 12.2267 23.7771 12.368 24.1163 12.5716C24.4553 12.7752 24.7267 13.0578 24.9303 13.4195C25.1338 13.7814 25.2357 14.245 25.2357 14.8102C25.2357 15.8278 24.9303 16.5628 24.3197 17.015C23.7092 17.4673 22.9291 17.6934 21.9792 17.6934H16.5861ZM11.2607 7.89062V32.1094H22.9969C24.0824 32.1094 25.1396 31.9738 26.1685 31.7023C27.1974 31.4309 28.1132 31.0127 28.916 30.4473C29.7186 29.882 30.3575 29.1527 30.8324 28.2595C31.3074 27.3662 31.5447 26.3091 31.5447 25.088C31.5447 23.5728 31.1772 22.2783 30.4424 21.2042C29.7074 20.13 28.5936 19.3781 27.1011 18.9484C28.1866 18.4284 29.0064 17.7612 29.5605 16.9472C30.1144 16.1331 30.3914 15.1156 30.3914 13.8944C30.3914 12.7638 30.2049 11.8141 29.8317 11.0452C29.4586 10.2764 28.9328 9.66016 28.2544 9.19656C27.5761 8.73297 26.7621 8.39937 25.8122 8.19594C24.8625 7.99234 23.811 7.89062 22.6577 7.89062H11.2607ZM16.5861 27.9711V21.3228H22.3863C23.5396 21.3228 24.4667 21.5884 25.1678 22.12C25.8688 22.6514 26.2194 23.5389 26.2194 24.7827C26.2194 25.4159 26.1119 25.9359 25.8971 26.343C25.6822 26.75 25.3939 27.0723 25.0321 27.3097C24.6703 27.5472 24.2519 27.7167 23.7771 27.8186C23.3021 27.9202 22.8047 27.9711 22.2846 27.9711H16.5861Z" fill="white"/>
</g>
</g>
<defs>
<clipPath id="clip0">
<rect width="40" height="40" fill="white" transform="translate(-0.00109863)"/>
</clipPath>
<clipPath id="clip1">
<rect width="40" height="40" fill="white" transform="translate(-0.00109863)"/>
</clipPath>
</defs>
</svg>
