<svg width="40" height="40" viewBox="0 0 40 40" fill="none" xmlns="http://www.w3.org/2000/svg">
<g clip-path="url(#clip0)">
<path d="M19.9818 39.8989L8.58694 36.6942L6.04758 7.84106H33.9502L31.4082 36.6898L19.9818 39.8989Z" fill="#264DE4"/>
<path d="M29.232 34.8528L31.4042 10.2002H19.9989V37.446L29.232 34.8528Z" fill="#2965F1"/>
<path d="M11.869 20.9014L12.182 24.4401H19.9989V20.9014H11.869Z" fill="#EBEBEB"/>
<path d="M11.2398 13.739L11.5574 17.2777H19.9989V13.739H11.2398Z" fill="#EBEBEB"/>
<path d="M19.9989 30.092L19.9836 30.0961L16.0933 29.032L15.8446 26.2097H12.338L12.8274 31.7661L19.9828 33.7782L19.9989 33.7738V30.092Z" fill="#EBEBEB"/>
<path d="M12.6143 0H16.845V1.79235H14.3836V3.58471H16.8452V5.37695H12.6143V0Z" fill="black"/>
<path d="M17.6912 0H21.9219V1.55856H19.4604V1.87025H21.9219V5.45496H17.6913V3.81828H20.1528V3.50659H17.6911V0H17.6912Z" fill="black"/>
<path d="M22.7682 0H26.9989V1.55856H24.5374V1.87025H26.9989V5.45496H22.7682V3.81828H25.2296V3.50659H22.7683V0H22.7682Z" fill="black"/>
<path d="M28.1065 20.9015L28.7371 13.739H19.9869V17.2777H24.909L24.5911 20.9015H19.9869V24.4402H24.2883L23.8827 29.0297L19.9868 30.0949V33.7765L27.1479 31.7659L27.2004 31.168L28.0213 21.8517L28.1065 20.9015Z" fill="white"/>
</g>
<defs>
<clipPath id="clip0">
<rect width="28" height="40" fill="white" transform="translate(5.9989)"/>
</clipPath>
</defs>
</svg>
