<svg width="40" height="40" viewBox="0 0 40 40" fill="none" xmlns="http://www.w3.org/2000/svg">
<g clip-path="url(#clip0)">
<path d="M13.4989 40.0001C17.0869 40.0001 19.9989 37.0134 19.9989 33.3334V26.6667H13.4989C9.9109 26.6667 6.9989 29.6534 6.9989 33.3334C6.9989 37.0134 9.9109 40.0001 13.4989 40.0001Z" fill="#0ACF83"/>
<path d="M6.9989 19.9999C6.9989 16.3199 9.9109 13.3333 13.4989 13.3333H19.9989V26.6666H13.4989C9.9109 26.6666 6.9989 23.6799 6.9989 19.9999Z" fill="#A259FF"/>
<path d="M6.9989 6.66667C6.9989 2.98667 9.9109 0 13.4989 0H19.9989V13.3333H13.4989C9.9109 13.3333 6.9989 10.3467 6.9989 6.66667Z" fill="#F24E1E"/>
<path d="M19.9989 0H26.4989C30.0869 0 32.9989 2.98667 32.9989 6.66667C32.9989 10.3467 30.0869 13.3333 26.4989 13.3333H19.9989V0Z" fill="#FF7262"/>
<path d="M32.9989 19.9999C32.9989 23.6799 30.0869 26.6666 26.4989 26.6666C22.9109 26.6666 19.9989 23.6799 19.9989 19.9999C19.9989 16.3199 22.9109 13.3333 26.4989 13.3333C30.0869 13.3333 32.9989 16.3199 32.9989 19.9999Z" fill="#1ABCFE"/>
</g>
<defs>
<clipPath id="clip0">
<rect width="26" height="40" fill="white" transform="translate(6.9989)"/>
</clipPath>
</defs>
</svg>
