<svg width="40" height="40" viewBox="0 0 40 40" fill="none" xmlns="http://www.w3.org/2000/svg">
<g clip-path="url(#clip0)">
<g clip-path="url(#clip1)">
<path d="M31.3895 30.7443C31.3895 32.8832 26.3583 34.6066 20.1552 34.6066C13.952 34.6066 8.92078 32.8678 8.92078 30.7443C8.92078 28.6055 13.952 26.8821 20.1552 26.8821C26.3583 26.8821 31.3895 28.6055 31.3895 30.7443Z" fill="#9EDCF2"/>
<path d="M31.3895 30.7443C31.3895 32.8832 26.3583 34.6066 20.1552 34.6066C13.952 34.6066 8.92078 32.8678 8.92078 30.7443C8.92078 28.6055 13.952 26.8821 20.1552 26.8821C26.3583 26.8821 31.3895 28.6055 31.3895 30.7443Z" fill="#7DBCE7"/>
<path d="M7.32704 19.3728L6.99892 20.4807C6.99892 20.4807 6.92079 20.8808 7.29579 20.9577C7.70204 20.9423 7.67079 20.573 7.63954 20.4653L7.32704 19.3728Z" fill="#9EDCF2"/>
<path d="M39.9677 14.71L39.9989 14.5715C36.702 13.9252 33.327 13.9098 31.2802 14.0022C31.6083 12.8173 31.7177 11.4324 31.7177 9.90908C31.7177 7.70866 30.8739 5.95449 29.5302 4.63116C29.7645 3.87718 30.077 2.19994 29.2177 0.0610766C29.2177 0.0610766 27.6864 -0.415936 24.202 1.8768C22.8427 1.53828 21.3895 1.36901 19.9364 1.36901C18.3427 1.36901 16.7333 1.56905 15.2177 1.96913C11.6239 -0.446711 10.0458 0.0456891 10.0458 0.0456891C9.01453 2.58463 9.65515 4.47729 9.84265 4.93891C8.6239 6.23146 7.88953 7.87793 7.88953 9.89369C7.88953 11.4171 8.0614 12.7865 8.4989 13.9714C6.4364 13.8944 3.1864 13.9252 -0.00109863 14.5561L0.0301514 14.6946C3.21765 14.0637 6.4989 14.0483 8.54578 14.1253C8.63953 14.3715 8.7489 14.6177 8.85828 14.8485C6.82703 14.91 3.3739 15.1716 0.0614014 16.0949L0.108276 16.2333C3.45203 15.3101 6.9364 15.0639 8.95203 15.0023C10.1708 17.2181 12.5458 18.6646 16.7958 19.1108C16.1864 19.5109 15.577 20.1879 15.327 21.342C14.4989 21.7267 11.9052 22.6807 10.3427 20.0341C10.3427 20.0341 9.46765 18.4645 7.79578 18.3414C7.79578 18.3414 6.17078 18.3107 7.6864 19.3416C7.6864 19.3416 8.76453 19.8494 9.51453 21.7421C9.51453 21.7421 10.4989 24.9734 15.202 23.9271V27.2354C15.202 27.2354 15.1083 28.4202 13.9989 28.8049C13.9989 28.8049 13.3427 29.2512 14.0458 29.4974C14.0458 29.4974 17.0927 29.7436 17.0927 27.2816V23.6501C17.0927 23.6501 16.9677 22.2037 17.6864 21.7113V27.6816C17.6864 27.6816 17.6395 29.1127 16.8895 29.6512C16.8895 29.6512 16.3895 30.5283 17.4833 30.2975C17.4833 30.2975 19.577 30.0052 19.6708 27.5893L19.7177 21.542H20.2177L20.2645 27.5893C20.3583 29.9898 22.452 30.2975 22.452 30.2975C23.5458 30.5437 23.0458 29.6512 23.0458 29.6512C22.2958 29.1127 22.2489 27.6816 22.2489 27.6816V21.7575C22.9676 22.3114 22.8427 23.6501 22.8427 23.6501V27.2816C22.8427 29.7436 25.8895 29.4974 25.8895 29.4974C26.5927 29.2512 25.9364 28.8049 25.9364 28.8049C24.8427 28.4049 24.7333 27.2354 24.7333 27.2354V22.4653C24.7333 20.6034 23.9364 19.6186 23.1552 19.1108C27.6864 18.6646 29.8583 17.2335 30.8583 14.987C32.8427 15.0331 36.4208 15.2793 39.827 16.2333L39.8739 16.0949C36.4833 15.1562 32.9364 14.91 30.9208 14.8485C31.0145 14.6177 31.0927 14.3868 31.1708 14.1406C33.2645 14.0637 36.6552 14.0637 39.9677 14.71Z" fill="#010101"/>
<path d="M27.2802 9.80193C28.2489 10.679 28.8271 11.7254 28.8271 12.8487C28.8271 18.142 24.8271 18.2804 19.8896 18.2804C14.9521 18.2804 10.9521 17.5418 10.9521 12.8487C10.9521 11.7254 11.5146 10.679 12.4833 9.81732C14.0927 8.37089 16.8114 9.14027 19.8896 9.14027C22.9677 9.14027 25.6708 8.3555 27.2802 9.80193Z" fill="#F5CCB3"/>
<path d="M16.9208 13.1256C16.9208 14.5874 16.0927 15.7568 15.0614 15.7568C14.0302 15.7568 13.202 14.572 13.202 13.1256C13.202 11.6637 14.0302 10.4943 15.0614 10.4943C16.0927 10.4789 16.9208 11.6637 16.9208 13.1256Z" fill="white"/>
<path d="M16.327 13.1563C16.327 14.1257 15.7645 14.9105 15.0927 14.9105C14.4052 14.9105 13.8583 14.1257 13.8583 13.1563C13.8583 12.1869 14.4208 11.4021 15.0927 11.4021C15.7645 11.4021 16.327 12.1869 16.327 13.1563Z" fill="#AF5C51"/>
<path d="M26.9052 13.1256C26.9052 14.5874 26.0771 15.7568 25.0458 15.7568C24.0146 15.7568 23.1864 14.572 23.1864 13.1256C23.1864 11.6637 24.0146 10.4943 25.0458 10.4943C26.0614 10.4789 26.9052 11.6637 26.9052 13.1256Z" fill="white"/>
<path d="M26.2958 13.1563C26.2958 14.1257 25.7333 14.9104 25.0614 14.9104C24.3739 14.9104 23.827 14.1257 23.827 13.1563C23.827 12.1869 24.3895 11.4021 25.0614 11.4021C25.7489 11.4021 26.2958 12.1869 26.2958 13.1563ZM20.3895 15.4644C20.3895 15.7106 20.1864 15.926 19.9208 15.926C19.6708 15.926 19.452 15.726 19.452 15.4644C19.452 15.2028 19.6551 15.0028 19.9208 15.0028C20.1708 15.0028 20.3895 15.2028 20.3895 15.4644ZM18.8426 16.6185C18.8114 16.5415 18.8583 16.4646 18.9364 16.4338C19.0145 16.403 19.0926 16.4492 19.1239 16.5261C19.2489 16.8647 19.5614 17.0801 19.9208 17.0801C20.2801 17.0801 20.5926 16.8493 20.7176 16.5261C20.7489 16.4492 20.827 16.403 20.9051 16.4338C20.9833 16.4646 21.0301 16.5415 20.9989 16.6185C20.8426 17.0647 20.4051 17.3724 19.9208 17.3724C19.4364 17.3724 18.9989 17.0647 18.8426 16.6185Z" fill="#AF5C51"/>
<path d="M8.5145 18.7113C8.5145 18.8344 8.37387 18.9267 8.18637 18.9267C8.0145 18.9267 7.85825 18.8344 7.85825 18.7113C7.85825 18.5882 7.99887 18.4958 8.18637 18.4958C8.37387 18.4958 8.5145 18.5882 8.5145 18.7113ZM9.42075 19.2037C9.42075 19.3268 9.28012 19.4191 9.09262 19.4191C8.92075 19.4191 8.7645 19.3268 8.7645 19.2037C8.7645 19.0806 8.90512 18.9883 9.09262 18.9883C9.28012 18.9883 9.42075 19.0806 9.42075 19.2037ZM9.96762 19.85C9.96762 19.9731 9.827 20.0654 9.6395 20.0654C9.46762 20.0654 9.31137 19.9731 9.31137 19.85C9.31137 19.7269 9.452 19.6345 9.6395 19.6345C9.827 19.6191 9.96762 19.7269 9.96762 19.85ZM10.4676 20.5886C10.4676 20.7117 10.327 20.804 10.1395 20.804C9.96762 20.804 9.81137 20.7117 9.81137 20.5886C9.81137 20.4655 9.952 20.3731 10.1395 20.3731C10.327 20.3577 10.4676 20.4655 10.4676 20.5886ZM11.0145 21.2656C11.0145 21.3887 10.8739 21.481 10.6864 21.481C10.5145 21.481 10.3582 21.3887 10.3582 21.2656C10.3582 21.1425 10.4989 21.0502 10.6864 21.0502C10.8739 21.0502 11.0145 21.1425 11.0145 21.2656ZM11.7645 21.8657C11.7645 21.9888 11.6239 22.0811 11.4364 22.0811C11.2645 22.0811 11.1082 21.9888 11.1082 21.8657C11.1082 21.7426 11.2489 21.6503 11.4364 21.6503C11.6239 21.6349 11.7645 21.7426 11.7645 21.8657ZM12.8114 22.2504C12.8114 22.3735 12.6707 22.4658 12.4832 22.4658C12.3114 22.4658 12.1551 22.3735 12.1551 22.2504C12.1551 22.1273 12.2957 22.035 12.4832 22.035C12.6707 22.035 12.8114 22.1273 12.8114 22.2504ZM13.8582 22.2504C13.8582 22.3735 13.7176 22.4658 13.5301 22.4658C13.3582 22.4658 13.202 22.3735 13.202 22.2504C13.202 22.1273 13.3426 22.035 13.5301 22.035C13.7176 22.035 13.8582 22.1273 13.8582 22.2504ZM14.9207 22.0811C14.9207 22.2042 14.7801 22.2966 14.5926 22.2966C14.4207 22.2966 14.2645 22.2042 14.2645 22.0811C14.2645 21.958 14.4051 21.8657 14.5926 21.8657C14.7645 21.8657 14.9207 21.958 14.9207 22.0811Z" fill="#C4E5D9"/>
</g>
</g>
<defs>
<clipPath id="clip0">
<rect width="40" height="40" fill="white" transform="translate(-0.00109863)"/>
</clipPath>
<clipPath id="clip1">
<rect width="40" height="40" fill="white" transform="translate(-0.00109863)"/>
</clipPath>
</defs>
</svg>
