<svg width="40" height="40" viewBox="0 0 40 40" fill="none" xmlns="http://www.w3.org/2000/svg">
<g clip-path="url(#clip0)">
<path d="M24.8701 38.7809L25.2517 32.39L26.3054 30.5823C26.3054 30.5823 23.9073 31.5683 19.8925 31.5683C15.8777 31.5683 13.5159 30.6005 13.5159 30.6005L14.6968 32.5725L15.1145 38.7809C15.1145 39.4464 17.2983 39.9859 19.9923 39.9859C22.6862 39.9859 24.8701 39.4464 24.8701 38.7809Z" fill="#D34A47"/>
<path d="M23.6665 8.93663L24.4674 5.75465L28.9028 1.06377L27.7337 0.0629883L23.038 5.05995L22.108 8.86158C21.4081 8.838 20.7079 8.82629 20.0076 8.82645C15.0621 8.82645 11.053 9.39295 11.053 10.0916C11.053 10.7903 15.0621 11.3568 20.0076 11.3568C24.953 11.3568 28.9621 10.7903 28.9621 10.0916C28.9621 9.57712 26.7878 9.1343 23.6665 8.93663Z" fill="#D34A47"/>
<path d="M23.2006 10.7187C23.2006 10.7187 23.0271 10.7578 22.5168 10.76C22.0065 10.7621 21.6441 10.7567 21.4997 10.6245C21.4609 10.589 21.4397 10.5186 21.4399 10.4709C21.4403 10.38 21.5044 10.3266 21.5861 10.2931L21.6634 10.4149C21.6298 10.4266 21.6106 10.4403 21.6105 10.455C21.6102 10.524 22.1324 10.5712 22.5318 10.5661C22.9312 10.5612 23.4138 10.5281 23.4142 10.4601C23.4142 10.4396 23.3778 10.4202 23.3143 10.4049L23.3912 10.2839C23.4947 10.3162 23.585 10.3786 23.5848 10.4866C23.5838 10.6702 23.3514 10.6981 23.2006 10.7187Z" fill="white"/>
<path d="M28.8941 1.07316C29.0056 0.943692 28.8363 0.612526 28.516 0.333586C28.1956 0.0547876 27.8455 -0.0663432 27.7338 0.0631268C27.6222 0.192597 27.7915 0.523763 28.1119 0.802561C28.4322 1.08143 28.7825 1.2027 28.8941 1.07316Z" fill="#D34A47"/>
<path d="M24.6568 23.1706C24.5517 22.1541 26.869 20.6819 26.2743 20.6347C24.994 20.7083 24.3568 22.1427 23.7127 23.6451C23.4767 24.1957 22.669 26.5435 22.1393 26.2545C21.6097 25.9655 22.8259 24.0349 23.1667 22.8883C22.7734 23.1782 21.3309 24.3046 20.9592 23.2497C20.3615 23.7599 19.0845 24.0363 19.2285 22.6961C18.9106 23.2622 18.197 24.0525 17.3404 23.7241C16.2156 23.293 17.9922 19.6915 18.434 19.8732C18.8758 20.0548 18.3448 20.8752 18.2058 21.1938C17.8999 21.8949 17.5466 22.7764 17.7826 22.9568C18.187 23.2659 19.2874 21.7874 19.3119 21.7549C19.5177 21.4816 20.104 19.6937 20.5766 19.899C21.0491 20.1043 19.3978 22.4649 20.0153 22.9334C20.1398 23.0279 20.6493 22.8751 20.9592 22.5381C21.1597 22.32 21.0908 21.8371 21.7592 20.2349C22.4277 18.6327 23.0234 16.6373 23.4819 16.7894C23.9403 16.9413 23.5625 17.9654 23.398 18.3472C22.6262 20.139 21.2917 23.0992 21.9211 22.8751C22.5504 22.6511 22.8782 22.6379 23.4945 21.913C24.1108 21.1882 24.0823 19.9942 24.4931 20.0195C24.904 20.045 24.835 20.4278 24.7354 20.7193C25.1397 20.2543 26.6518 19.2749 27.0169 20.2449C27.4493 21.3932 24.8535 23.052 25.5007 22.9674C26.1317 22.8849 27.1541 22.2341 27.5906 21.6424L28.7921 10.7854C28.7921 10.7854 27.5831 11.7911 19.8913 11.7911C12.1995 11.7911 11.1155 10.8063 11.1155 10.8063L12.1384 20.7161C12.6814 19.1651 13.9707 16.0279 16.003 16.1332C16.9275 16.1811 18.1616 17.9703 17.1045 18.0309C16.657 18.0565 16.6116 17.1378 16.0817 17.0029C15.6993 16.9055 15.167 17.218 14.823 17.5565C14.1369 18.2314 12.6612 20.8942 12.8562 22.2218C13.1046 23.9143 15.1799 21.6337 15.531 20.9566C15.7783 20.4796 15.9454 19.0665 16.4862 19.2147C17.0271 19.363 16.439 20.8214 16.047 22.1108C15.6065 23.5586 15.375 25.0859 14.823 24.9102C14.2709 24.7347 15.1702 22.8655 15.1376 22.5381C14.6187 23.0193 13.6627 24.2375 12.4397 23.6345L13.075 29.7884C13.075 29.7884 14.7634 31.1293 19.8496 31.1293C24.9358 31.1293 26.6867 29.8094 26.6867 29.8094L27.4756 22.6817C26.8302 23.3133 24.7876 24.435 24.6568 23.1706Z" fill="#D34A47"/>
</g>
<defs>
<clipPath id="clip0">
<rect width="18" height="40" fill="white" transform="translate(10.9989)"/>
</clipPath>
</defs>
</svg>
