<svg width="40" height="40" viewBox="0 0 40 40" fill="none" xmlns="http://www.w3.org/2000/svg">
<g clip-path="url(#clip0)">
<path d="M33.9503 7.84106L31.4083 36.6898L19.9819 39.8989L8.58697 36.6942L6.04761 7.84106H33.9503Z" fill="#E44D26"/>
<path d="M19.9989 37.446L29.232 34.8528L31.4042 10.2002H19.9989V37.446Z" fill="#F16529"/>
<path d="M15.0573 17.2777H19.9989V13.739H11.2398L11.3234 14.6884L12.182 24.4402H19.9989V20.9015H15.3766L15.0573 17.2777Z" fill="#EBEBEB"/>
<path d="M15.8446 26.2097H12.3381L12.8274 31.7661L19.9828 33.7782L19.9989 33.7738V30.092L19.9836 30.0961L16.0934 29.032L15.8446 26.2097Z" fill="#EBEBEB"/>
<path d="M8.64355 0H10.4187V1.77673H12.0426V0H13.8179V5.38039H12.0427V3.57872H10.4188V5.38039H8.64366V0H8.64355Z" fill="black"/>
<path d="M16.1522 1.78427H14.5897V0H19.4912V1.78427H17.9277V5.38039H16.1525V1.78427H16.1524H16.1522Z" fill="black"/>
<path d="M20.269 0H22.12L23.2586 1.89053L24.3961 0H26.2478V5.38039H24.4799V2.71357L23.2586 4.62659H23.228L22.0059 2.71357V5.38039H20.269V0Z" fill="black"/>
<path d="M27.1313 0H28.907V3.60199H31.4033V5.38039H27.1312V0H27.1313Z" fill="black"/>
<path d="M19.9869 24.4401H24.2883L23.8827 29.0296L19.9868 30.0948V33.7764L27.1479 31.7658L27.2004 31.168L28.0213 21.8516L28.1065 20.9014H19.9869V24.4401Z" fill="white"/>
<path d="M19.9869 17.2691V17.2777H28.4244L28.4944 16.4824L28.6536 14.6884L28.7371 13.739H19.9869V17.2692V17.2691Z" fill="white"/>
</g>
<defs>
<clipPath id="clip0">
<rect width="28" height="40" fill="white" transform="translate(5.9989)"/>
</clipPath>
</defs>
</svg>
