<svg width="40" height="40" viewBox="0 0 40 40" fill="none" xmlns="http://www.w3.org/2000/svg">
<g clip-path="url(#clip0)">
<path d="M33.9989 7.83838H4.9989L7.71765 36.7264L19.4973 40L31.2769 36.7264L33.9989 7.83838Z" fill="#E6A329"/>
<path d="M19.4973 10.1919V37.5519L29.0415 34.9023L31.3634 10.1919H19.4973Z" fill="#F1BF22"/>
<path d="M27.0902 13.7361H12.4155L11.3933 24.5521L11.4145 24.4849H23.8816L23.475 29.0609L19.4973 30.1825L15.4608 29.0433L15.2191 26.2737H11.5549L12.0775 31.8081L19.4973 33.8721L26.9204 31.8081L27.9426 20.9457H14.7113L14.8811 17.3265H24.0612L24.1984 19.4001H27.8952L27.0902 13.7361Z" fill="white"/>
<path d="M19.5005 13.7361H12.4155L11.3933 24.5521L11.4145 24.4849H19.5005V20.9569H15.2273L15.3971 17.3377H19.5005V13.7361ZM15.2273 26.2737H11.5549L12.0775 31.8049L19.4973 33.8657V30.1857L15.4608 29.0433L15.2273 26.2737Z" fill="#EBEBEB"/>
<path d="M16.6772 3.5776H14.0956V5.3936H18.524V0H16.6772V3.5776ZM24.9004 0.0288H20.4002V1.9168C21.0011 2.5056 21.3146 2.7888 22.1996 3.6416H20.4002V5.3632H24.9004V3.6448L23.101 1.92H24.9004V0.0288Z" fill="#231F20"/>
</g>
<defs>
<clipPath id="clip0">
<rect width="29" height="40" fill="white" transform="translate(4.9989)"/>
</clipPath>
</defs>
</svg>
