<svg width="40" height="40" viewBox="0 0 40 40" fill="none" xmlns="http://www.w3.org/2000/svg">
<g clip-path="url(#clip0)">
<g clip-path="url(#clip1)">
<path d="M39.9794 7.11165C39.968 3.21384 36.769 0.00387878 32.9683 -0.000349799C24.3466 -0.00316885 15.7254 -0.00160271 7.10463 0.00434862C6.83122 -0.00181903 6.55775 0.0123131 6.28633 0.0466344C2.4847 0.616083 0.00782327 3.54555 0.0032441 7.51383C-0.00591425 15.8144 -0.00698273 24.1138 3.86741e-05 32.4122C3.86741e-05 32.976 0.0275137 33.5346 0.137414 34.0867C0.840775 37.6152 3.67528 39.9949 7.18751 39.9978C11.4635 40.0012 15.7397 40.0012 20.0161 39.9978H32.7416H32.9467C36.7887 39.9738 39.9698 36.7812 39.9804 32.8524C40.0039 24.2725 40.0036 15.6922 39.9794 7.11165ZM38.3044 32.0401C38.3044 35.6536 35.74 38.2763 32.2177 38.28C28.131 38.2841 24.0439 38.2841 19.9565 38.28V38.2772C15.9205 38.2772 11.8847 38.2772 7.8492 38.2772C4.27745 38.2772 1.72776 35.7701 1.69891 32.1082C1.65312 26.4231 1.68197 20.7404 1.6806 15.0567C1.6806 12.7234 1.72639 10.3893 1.6751 8.05603C1.59588 4.36918 4.46794 1.65725 7.98887 1.69108C16.1114 1.7625 24.2349 1.7094 32.3574 1.7188C35.2556 1.72209 37.6349 3.73207 38.2027 6.63194C38.2712 6.99321 38.3047 7.36052 38.303 7.72855C38.3082 15.8318 38.3087 23.9356 38.3044 32.0401Z" fill="#25D2FD"/>
<path d="M19.9572 38.2785C15.9211 38.2785 11.8854 38.2785 7.84989 38.2785C4.27813 38.2785 1.72845 35.7715 1.6996 32.1095C1.65381 26.4244 1.68266 20.7417 1.68128 15.058C1.68128 12.7248 1.72707 10.3906 1.67579 8.05736C1.59657 4.36958 4.46863 1.65765 7.98955 1.69148C16.1121 1.76289 24.2355 1.7098 32.3581 1.7192C35.2562 1.72248 37.6356 3.73247 38.2034 6.63233C38.2718 6.99361 38.3054 7.36092 38.3037 7.72895C38.3086 15.8337 38.3086 23.9383 38.3037 32.0428C38.3037 35.6564 35.7393 38.279 32.217 38.2828C28.1303 38.2868 24.0432 38.2868 19.9559 38.2828L19.9572 38.2785Z" fill="#032831"/>
<path d="M22.3673 25.9245C22.3691 25.6664 22.3708 25.4084 22.3723 25.1506C22.3723 24.8448 22.3265 24.3641 22.762 24.6338C23.744 25.2521 24.8808 25.5624 26.0324 25.5265C26.3052 25.5238 26.5763 25.484 26.8388 25.4081C27.8614 25.0886 28.1123 24.054 27.359 23.2802C26.8196 22.7262 26.1382 22.3875 25.4692 22.0384C24.996 21.7959 24.5401 21.5193 24.1051 21.2105C22.7817 20.2553 22.1818 18.9492 22.4108 17.3085C22.6516 15.5814 23.698 14.5148 25.2924 14.0487C26.7578 13.6207 28.2318 13.7523 29.6885 14.1817C30.1738 14.3227 30.139 14.7051 30.139 15.1444C30.139 15.7201 30.139 16.2957 30.139 16.8711C30.1442 16.9369 30.1335 17.0031 30.1079 17.0637C30.0209 17.23 29.8006 17.1168 29.6862 17.0562C28.8354 16.6051 27.9191 16.4243 26.9666 16.4224C26.7958 16.4214 26.6253 16.4355 26.4569 16.4647C25.8854 16.5657 25.3904 16.8001 25.248 17.4368C25.1107 18.0584 25.4632 18.462 25.9189 18.797C26.5879 19.2894 27.343 19.6225 28.0564 20.0331C28.8349 20.4818 29.5744 20.993 30.0891 21.764C31.5462 23.9478 30.5255 27.0159 28.0349 27.8621C26.3168 28.4456 24.6005 28.2849 22.9099 27.677C22.4153 27.4994 22.3604 27.1047 22.3641 26.6165L22.3673 25.9245Z" fill="#E0F7FF"/>
<path d="M15.5823 9.14542C13.8221 8.98144 12.065 9.11817 10.3057 9.14166C9.81482 9.14824 9.66233 9.30281 9.66462 9.8079C9.68431 12.7364 9.67424 15.6649 9.67424 18.5939C9.67424 21.5399 9.68111 24.4862 9.666 27.4321C9.666 27.87 9.85512 27.9245 10.2329 27.9165C10.7623 27.9053 11.2939 27.9165 11.8237 27.9165C12.2963 27.9165 12.6539 27.9795 12.648 27.3899C12.6237 25.4612 12.648 23.532 12.6315 21.6028C12.6287 21.2551 12.7231 21.1494 13.0651 21.1663C13.6447 21.2008 14.2257 21.2008 14.8052 21.1663C17.8627 20.9502 20.5612 19.2738 20.77 15.3718C20.9569 11.8869 18.9755 9.46209 15.5823 9.14542ZM14.4911 18.4333C13.9965 18.4553 13.5001 18.4262 13.0056 18.4459C12.7148 18.4572 12.6273 18.352 12.6319 18.0541C12.648 17.0735 12.6379 16.092 12.6379 15.111C12.6379 14.1475 12.6379 13.1839 12.6379 12.2201C12.6379 12.0209 12.6241 11.8315 12.9085 11.8226C13.8294 11.793 14.7521 11.7178 15.656 11.9856C16.7326 12.3042 17.4108 13.008 17.6644 14.1403C18.2062 16.5623 16.9107 18.3238 14.4911 18.4333Z" fill="#E0F7FF"/>
</g>
</g>
<defs>
<clipPath id="clip0">
<rect width="40" height="40" fill="white" transform="translate(-0.00109863)"/>
</clipPath>
<clipPath id="clip1">
<rect width="40" height="40" fill="white" transform="translate(-0.00109863)"/>
</clipPath>
</defs>
</svg>
