<svg width="40" height="40" viewBox="0 0 40 40" fill="none" xmlns="http://www.w3.org/2000/svg">
<g clip-path="url(#clip0)">
<g clip-path="url(#clip1)">
<path d="M19.9989 40C31.0446 40 39.9989 31.0457 39.9989 20C39.9989 8.9543 31.0446 0 19.9989 0C8.95321 0 -0.00109863 8.9543 -0.00109863 20C-0.00109863 31.0457 8.95321 40 19.9989 40Z" fill="#F2F2F2"/>
<path d="M26.0134 31.8256C22.0655 33.2801 17.7285 33.2801 13.7806 31.8256C13.417 31.6946 13.1262 31.2656 13.1262 30.8946V29.942C13.1262 29.571 13.417 29.3892 13.7808 29.5201C17.7287 30.9747 22.0657 30.9747 26.0136 29.5201C26.377 29.3892 26.668 29.571 26.668 29.942V30.8946C26.6608 31.2656 26.3698 31.6946 26.0134 31.8256Z" fill="#ED1C24"/>
<path d="M26.0134 30.6619C22.0644 32.6837 17.7298 32.6837 13.7806 30.6619C13.417 30.48 13.1262 29.8837 13.1262 29.3673V28.0509C13.1262 27.5345 13.417 27.28 13.7808 27.4691C17.7298 29.4909 22.0644 29.4909 26.0136 27.4691C26.377 27.2873 26.668 27.5347 26.668 28.0509V29.3673C26.6608 29.8836 26.3698 30.48 26.0134 30.6619Z" fill="#C1272D"/>
<path d="M19.897 32.88C20.2063 32.88 20.457 32.6293 20.457 32.32C20.457 32.0107 20.2063 31.76 19.897 31.76C19.5877 31.76 19.337 32.0107 19.337 32.32C19.337 32.6293 19.5877 32.88 19.897 32.88Z" fill="#C1272D"/>
<path d="M19.897 32.72C20.1621 32.72 20.377 32.5051 20.377 32.24C20.377 31.9749 20.1621 31.76 19.897 31.76C19.6319 31.76 19.417 31.9749 19.417 32.24C19.417 32.5051 19.6319 32.72 19.897 32.72Z" fill="#FF931E"/>
<path d="M20.0353 32.5747C20.1277 32.5747 20.2027 32.4998 20.2027 32.4073C20.2027 32.3149 20.1277 32.24 20.0353 32.24C19.9429 32.24 19.868 32.3149 19.868 32.4073C19.868 32.4998 19.9429 32.5747 20.0353 32.5747Z" fill="#FFB81E"/>
<path d="M19.897 35.6364C20.7244 35.6364 21.3951 34.9657 21.3951 34.1383C21.3951 33.3109 20.7244 32.6401 19.897 32.6401C19.0696 32.6401 18.3989 33.3109 18.3989 34.1383C18.3989 34.9657 19.0696 35.6364 19.897 35.6364Z" fill="#FF931E"/>
<path d="M19.897 35.4981C20.6401 35.4981 21.2425 34.8957 21.2425 34.1526C21.2425 33.4095 20.6401 32.8071 19.897 32.8071C19.1539 32.8071 18.5515 33.4095 18.5515 34.1526C18.5515 34.8957 19.1539 35.4981 19.897 35.4981Z" fill="#FFB81E"/>
<path d="M20.2898 33.7235C20.3698 33.7963 20.4134 33.898 20.4134 34.0435C20.4134 34.1889 20.3697 34.2908 20.2898 34.3635C20.2025 34.4289 20.0789 34.4653 19.9043 34.4653H19.7515V34.7925H19.4898V33.6216H19.9043C20.0789 33.6216 20.2098 33.6508 20.2898 33.7235ZM20.1007 34.1816C20.1298 34.1453 20.1443 34.0944 20.1443 34.0289C20.1443 33.9635 20.1225 33.9125 20.0862 33.8836C20.0425 33.8544 19.9843 33.8399 19.8972 33.8399H19.7515V34.2325H19.9262C20.0134 34.2325 20.0715 34.218 20.1007 34.1816Z" fill="#FF931E"/>
<path d="M32.0353 21.949C32.3989 26.9308 27.0098 31.4037 19.9697 31.3963C12.937 31.4035 7.54076 26.9307 7.90435 21.949C8.26795 16.9526 13.6862 12.829 19.9844 12.8218C26.2898 12.829 31.6644 16.9526 32.0353 21.949Z" fill="#F7BD89"/>
<path d="M19.948 12.1238C13.3298 12.1238 7.18438 16.7857 8.34797 23.8838C8.58078 24.5385 8.96625 26.2402 10.8063 27.7457C11.3589 28.1966 12.3116 28.5747 12.7625 28.2692C13.9189 27.4838 11.868 25.2292 14.2098 23.1492H14.1589C15.4316 22.1821 17.2353 21.4111 19.9334 21.4111C22.6316 21.4111 24.4353 22.1821 25.708 23.1492H25.657C27.9989 25.2292 25.9553 27.4838 27.1044 28.2692C27.5553 28.5747 28.5153 28.1966 29.0606 27.7457C30.9008 26.2402 31.2934 24.5383 31.5262 23.8838C32.6898 16.7783 26.5662 12.1238 19.9481 12.1238H19.948Z" fill="#FBD5A0"/>
<path d="M25.6427 23.9127C24.5298 22.5455 22.4208 21.2219 19.9698 21.2219H19.9408C17.4825 21.2219 15.3736 22.5454 14.268 23.9127C13.1189 25.3091 13.5336 25.9055 13.5336 27.2436C13.5336 32.0874 15.228 30.6765 16.3698 31.2582C17.5334 31.8254 18.7116 31.6219 19.948 31.6219H19.9698C21.2063 31.6219 22.3844 31.8255 23.548 31.251C24.6825 30.6691 26.3844 32.0947 26.3844 27.251C26.377 25.92 26.7916 25.3091 25.6425 23.9127H25.6427Z" fill="black"/>
<path d="M11.7806 23.7888C12.9012 23.7888 13.8097 22.8804 13.8097 21.7598C13.8097 20.6392 12.9012 19.7307 11.7806 19.7307C10.66 19.7307 9.75156 20.6392 9.75156 21.7598C9.75156 22.8804 10.66 23.7888 11.7806 23.7888Z" fill="#F7BD89"/>
<path d="M11.9623 23.447C13.0829 23.447 13.9914 22.5386 13.9914 21.418C13.9914 20.2974 13.0829 19.3889 11.9623 19.3889C10.8417 19.3889 9.93326 20.2974 9.93326 21.418C9.93326 22.5386 10.8417 23.447 11.9623 23.447Z" fill="black"/>
<path d="M12.4787 21.0325C12.7679 21.0325 13.0023 20.7981 13.0023 20.5089C13.0023 20.2198 12.7679 19.9854 12.4787 19.9854C12.1896 19.9854 11.9551 20.2198 11.9551 20.5089C11.9551 20.7981 12.1896 21.0325 12.4787 21.0325Z" fill="white"/>
<path d="M28.0717 23.7888C29.1923 23.7888 30.1008 22.8804 30.1008 21.7598C30.1008 20.6392 29.1923 19.7307 28.0717 19.7307C26.9511 19.7307 26.0426 20.6392 26.0426 21.7598C26.0426 22.8804 26.9511 23.7888 28.0717 23.7888Z" fill="#F7BD89"/>
<path d="M27.9553 23.447C29.0759 23.447 29.9843 22.5386 29.9843 21.418C29.9843 20.2974 29.0759 19.3889 27.9553 19.3889C26.8347 19.3889 25.9262 20.2974 25.9262 21.418C25.9262 22.5386 26.8347 23.447 27.9553 23.447Z" fill="black"/>
<path d="M28.4717 21.0325C28.7609 21.0325 28.9953 20.7981 28.9953 20.5089C28.9953 20.2198 28.7609 19.9854 28.4717 19.9854C28.1825 19.9854 27.9481 20.2198 27.9481 20.5089C27.9481 20.7981 28.1825 21.0325 28.4717 21.0325Z" fill="white"/>
<path d="M15.6789 13.9418C15.6789 13.9418 8.80625 15.1273 8.52984 23.3381C8.5225 23.4618 8.39156 23.5418 8.2825 23.4764L8.06437 23.3454L7.89719 21.1926L8.20969 16.8L11.0753 14.6836L13.6498 13.6436L15.6789 13.9418Z" fill="#F7BD89"/>
<path d="M24.2099 13.9418C24.2099 13.9418 31.0825 15.1273 31.3589 23.3381C31.3663 23.4618 31.497 23.5418 31.6063 23.4764L31.8244 23.3454L31.9916 21.1926L31.6789 16.8L28.8135 14.6836L26.2389 13.6436L24.2099 13.9418Z" fill="#F7BD89"/>
<path d="M19.804 28.564V24.4218H20.1065V28.5542C20.5523 28.6065 21.1315 28.8656 21.6862 29.0326C22.2608 29.2364 22.8134 29.3164 22.5953 29.3454C21.8389 29.3745 21.0098 29.0908 19.9915 29.1054C18.9662 29.0909 18.137 29.3745 17.388 29.3454C17.1698 29.309 17.7225 29.229 18.297 29.0326C18.823 28.8744 19.3653 28.6331 19.804 28.5639V28.564ZM21.8534 23.0254C22.0934 23.5564 21.2644 24.4218 19.948 24.4218C18.6315 24.4218 17.8026 23.5562 18.0425 23.0254C18.2753 22.48 19.1115 22.3054 19.948 22.2981C20.7844 22.3054 21.6208 22.48 21.8534 23.0254Z" fill="#4D4D4D"/>
<path d="M15.6789 13.9418C15.6789 13.9418 7.58437 15.0618 8.2825 23.0981C8.3189 23.5054 6.66797 21.3599 5.38797 20.7054C4.10797 20.0507 4.15156 17.9345 4.15156 17.9345C4.15156 17.9345 4.12968 14.2473 9.30078 13.1563C14.4644 12.0726 15.6789 13.9418 15.6789 13.9418ZM24.2098 13.9418C24.2098 13.9418 32.3044 15.0618 31.6063 23.0981C31.5698 23.5054 33.2208 21.3599 34.5008 20.7054C35.7808 20.0507 35.737 17.9345 35.737 17.9345C35.737 17.9345 35.7589 14.2473 30.588 13.1563C25.4244 12.0726 24.2098 13.9418 24.2098 13.9418Z" fill="black"/>
<path d="M19.9551 19.731C17.4389 19.731 14.8934 22.2036 15.4243 21.9274C16.4062 21.411 16.9734 20.5019 19.9553 20.5019C22.937 20.5019 23.497 21.411 24.4862 21.9274C25.017 22.2036 22.4715 19.731 19.9553 19.731H19.9551Z" fill="#F7BD89"/>
<path d="M19.9551 18.6475C18.0426 18.6475 16.1153 20.5237 16.5153 20.3128C17.2643 19.9201 18.2243 19.2292 19.9553 19.2292C21.6862 19.2292 22.6462 19.9201 23.3953 20.3128C23.7953 20.5237 21.8679 18.6475 19.9553 18.6475H19.9551Z" fill="#F7BD89"/>
<path d="M19.9408 12.5601C17.8316 12.5601 15.6935 13.7674 16.137 13.6291C16.9663 13.3746 18.028 12.931 19.9408 12.931C21.8535 12.931 22.9153 13.3747 23.7444 13.6291C24.1881 13.7674 22.057 12.5601 19.9408 12.5601Z" fill="#F7BD89"/>
<path d="M20.4279 22.7346C20.4862 22.8655 20.2826 23.0765 19.9553 23.0765C19.6279 23.0765 19.4243 22.8655 19.4825 22.7346C19.5408 22.6037 19.7444 22.5601 19.9553 22.5527C20.1589 22.5527 20.3698 22.5965 20.4279 22.7346Z" fill="#808080"/>
</g>
</g>
<defs>
<clipPath id="clip0">
<rect width="40" height="40" fill="white" transform="translate(-0.00109863)"/>
</clipPath>
<clipPath id="clip1">
<rect width="40" height="40" fill="white" transform="translate(-0.00109863)"/>
</clipPath>
</defs>
</svg>
