<svg width="40" height="40" viewBox="0 0 40 40" fill="none" xmlns="http://www.w3.org/2000/svg">
<g clip-path="url(#clip0)">
<g clip-path="url(#clip1)">
<path d="M34.4178 22.2679C33.0263 22.2751 31.8167 22.6102 30.8041 23.1057C30.4324 22.3698 30.0608 21.7142 29.9953 21.2332C29.9223 20.6723 29.835 20.3298 29.9223 19.6595C30.0098 18.9892 30.4033 18.0346 30.3959 17.9618C30.3888 17.889 30.3084 17.5465 29.507 17.5393C28.7056 17.532 28.0134 17.6923 27.9333 17.9035C27.8531 18.1148 27.7002 18.5957 27.5981 19.091C27.4597 19.8198 25.9953 22.4207 25.1575 23.7832C24.8878 23.2515 24.6547 22.7851 24.6036 22.4135C24.5308 21.8526 24.4433 21.5101 24.5308 20.8398C24.6183 20.1695 25.0117 19.2151 25.0044 19.1421C24.997 19.0693 24.9169 18.7268 24.1155 18.7196C23.3139 18.7123 22.6217 18.8726 22.5417 19.0838C22.4616 19.2952 22.3741 19.7906 22.2066 20.2715C22.0389 20.7524 20.0936 25.0949 19.5836 26.2168C19.3775 26.6709 19.1613 27.1203 18.9352 27.5648C18.9352 27.5648 18.9278 27.5867 18.9059 27.6231C18.8349 27.7624 18.7621 27.9009 18.6875 28.0384V28.0456C18.5781 28.2424 18.4616 28.4245 18.4033 28.4245C18.3595 28.4245 18.2794 27.8999 18.4178 27.1859C18.7092 25.6777 19.4014 23.3317 19.3942 23.2515C19.3942 23.2077 19.5253 22.7998 18.9425 22.5884C18.3741 22.3771 18.1702 22.7268 18.1191 22.7268C18.0681 22.7268 18.0316 22.8507 18.0316 22.8507C18.0316 22.8507 18.6656 20.2132 16.8222 20.2132C15.6711 20.2132 14.0827 21.4737 13.2958 22.6102C12.4013 23.097 11.5075 23.5852 10.6145 24.0748C10.1848 24.3153 9.74032 24.5557 9.32501 24.7815C9.29579 24.7524 9.26672 24.7159 9.2375 24.6868C7.00797 22.3043 2.88422 20.6212 3.05907 17.4227C3.12469 16.257 3.52532 13.1968 10.9789 9.48103C17.1136 6.45728 21.9953 7.29509 22.8405 9.15306C24.0499 11.8052 20.2248 16.7306 13.8859 17.4445C11.467 17.7142 10.1992 16.7815 9.87876 16.4318C9.5436 16.0674 9.49251 16.0456 9.3686 16.1185C9.16469 16.2279 9.29579 16.5557 9.3686 16.7451C9.55813 17.2404 10.3377 18.1148 11.6564 18.5448C12.8222 18.9235 15.6564 19.1349 19.0881 17.8088C22.9278 16.3224 25.9297 12.1913 25.0481 8.73056C24.1664 5.21869 18.3377 4.06025 12.8222 6.02009C9.5436 7.18603 5.98797 9.02197 3.43063 11.4118C0.392349 14.2532 -0.0885884 16.7232 0.10813 17.7579C0.815005 21.4299 5.87876 23.8198 7.90422 25.5902C7.80219 25.6485 7.70735 25.6996 7.62735 25.7434C6.61454 26.246 2.75297 28.2642 1.79126 30.399C0.698443 32.8179 1.96626 34.5521 2.80407 34.7851C5.40516 35.5065 8.07907 34.2096 9.51438 32.0674C10.9497 29.9254 10.7748 27.1421 10.1119 25.8671C10.1045 25.8526 10.0974 25.8379 10.0827 25.8234C10.345 25.6704 10.6145 25.5101 10.8769 25.3571C11.359 25.0721 11.8473 24.7975 12.3414 24.5337C12.0936 25.2113 11.9114 26.0201 11.8241 27.1859C11.7147 28.5557 12.2756 30.3334 13.0116 31.0327C13.3395 31.339 13.7256 31.3462 13.9734 31.3462C14.8331 31.3462 15.2194 30.6321 15.6492 29.787C16.1738 28.7524 16.6474 27.5502 16.6474 27.5502C16.6474 27.5502 16.0572 30.7998 17.6602 30.7998C18.243 30.7998 18.8331 30.042 19.0955 29.6559V29.6631C19.0955 29.6631 19.11 29.6412 19.1392 29.5902C19.1975 29.4956 19.2339 29.4371 19.2339 29.4371V29.4227C19.467 29.0146 19.9917 28.0893 20.7713 26.552C21.7767 24.5702 22.7458 22.0931 22.7458 22.0931C22.7458 22.0931 22.8333 22.6977 23.1319 23.7032C23.3069 24.2934 23.6709 24.9418 23.9625 25.5684C23.7294 25.8963 23.5836 26.0784 23.5836 26.0784L23.5909 26.0857C23.4014 26.3334 23.1975 26.6029 22.9716 26.8654C22.1773 27.8124 21.2303 28.8982 21.0991 29.2113C20.9459 29.5829 20.9825 29.8526 21.2741 30.0712C21.4853 30.2315 21.8641 30.2532 22.2503 30.2315C22.9644 30.1804 23.467 30.0056 23.7147 29.8963C24.1009 29.7579 24.5527 29.5465 24.9752 29.2332C25.7549 28.6576 26.2283 27.8343 26.1847 26.7488C26.1628 26.1513 25.9661 25.5538 25.7256 24.9928C25.7986 24.8909 25.8641 24.7888 25.937 24.6868C27.1683 22.8871 28.1228 20.9126 28.1228 20.9126C28.1228 20.9126 28.2103 21.5173 28.5089 22.5229C28.6547 23.0329 28.9534 23.5867 29.2156 24.1257C28.0572 25.0657 27.3431 26.1585 27.0881 26.8726C26.6292 28.1987 26.9861 28.796 27.6638 28.9345C27.9697 29.0001 28.4069 28.8543 28.7275 28.7159C29.1355 28.5848 29.6164 28.359 30.0755 28.0237C30.8552 27.4482 31.6055 26.6467 31.5617 25.5612C31.5398 25.0657 31.4088 24.5774 31.2266 24.1038C32.2102 23.696 33.478 23.4701 35.0953 23.6595C38.5636 24.0674 39.2484 26.2313 39.1172 27.1423C38.9861 28.0529 38.2575 28.5484 38.0172 28.7013C37.7766 28.8545 37.6966 28.9054 37.7184 29.0146C37.7475 29.1749 37.8641 29.1677 38.0681 29.1385C38.3523 29.0876 39.8897 28.4026 39.9552 26.7268C40.0645 24.5848 38.0244 22.246 34.4178 22.2679ZM7.66376 31.2879C6.51251 32.541 4.90969 33.0146 4.21751 32.614C3.47438 32.184 3.76579 30.3334 5.17922 29.0074C6.03891 28.1987 7.14641 27.4481 7.88235 26.9892C8.04985 26.8871 8.29766 26.7415 8.59641 26.5593C8.64735 26.5301 8.67657 26.5156 8.67657 26.5156L8.85141 26.4062C9.3686 28.3006 8.87329 29.9692 7.66376 31.2879ZM16.0427 25.5902C15.6419 26.5667 14.8041 29.0657 14.2941 28.9273C13.8569 28.8107 13.5872 26.9163 14.2066 25.0438C14.5198 24.1038 15.1828 22.9818 15.5691 22.5448C16.1956 21.8452 16.8878 21.612 17.0553 21.8963C17.2667 22.2679 16.2903 24.9782 16.0427 25.5902ZM22.957 28.8981C22.7894 28.9856 22.6292 29.0438 22.5563 29.0001C22.5053 28.9709 22.6292 28.8543 22.6292 28.8543C22.6292 28.8543 23.4963 27.9218 23.8386 27.4992C24.0355 27.2515 24.2684 26.9601 24.5163 26.6321V26.7268C24.5163 27.8417 23.4378 28.5921 22.9569 28.8981H22.957ZM28.2903 27.6813C28.1664 27.5938 28.1883 27.3024 28.6036 26.3917C28.7639 26.0346 29.1427 25.4373 29.7913 24.8617C29.8641 25.0948 29.9152 25.3207 29.9078 25.532C29.9005 26.9382 28.8952 27.4627 28.2903 27.6813Z" fill="#CD6799"/>
</g>
</g>
<defs>
<clipPath id="clip0">
<rect width="40" height="40" fill="white" transform="translate(-0.00109863)"/>
</clipPath>
<clipPath id="clip1">
<rect width="40" height="30" fill="white" transform="translate(-0.00109863 5)"/>
</clipPath>
</defs>
</svg>
