<svg width="40" height="40" viewBox="0 0 40 40" fill="none" xmlns="http://www.w3.org/2000/svg">
<g clip-path="url(#clip0)">
<g clip-path="url(#clip1)">
<path d="M33.7386 40H7.25918C3.24446 40 -0.00109863 36.7524 -0.00109863 32.7352V7.26482C-0.00109863 3.24759 3.24446 0 7.25918 0H33.7386C37.7533 0 40.9989 3.24759 40.9989 7.26482V32.7352C40.9989 36.7524 37.7533 40 33.7386 40Z" fill="#FF26BE"/>
<path d="M33.0892 38.2901H7.9086C4.49248 38.2901 1.70776 35.5036 1.70776 32.0853V7.91468C1.70776 4.49642 4.49248 1.70996 7.9086 1.70996H33.0728C36.5069 1.70996 39.2736 4.49642 39.2736 7.91468V32.0689C39.29 35.5036 36.5053 38.2901 33.0892 38.2901Z" fill="#2E001F"/>
<path d="M16.2103 18.7176L20.9942 27.9139C21.0795 28.0501 21.0286 28.1879 20.8909 28.1879H17.9175C17.7289 28.1879 17.6437 28.1371 17.5584 27.9664C16.4645 25.71 15.3542 23.4536 14.2095 21.0265H14.1751C13.1501 23.3174 12.0217 25.728 10.9295 27.9844C10.8442 28.1206 10.7589 28.1732 10.6212 28.1732H7.80531C7.63475 28.1732 7.61671 28.037 7.70363 27.9336L12.3842 19.0097L7.85779 9.98403C7.75447 9.84782 7.85779 9.74444 7.95947 9.74444H10.8983C11.0689 9.74444 11.1378 9.7789 11.205 9.93316C12.2809 12.1896 13.3747 14.5149 14.3997 16.7877H14.4342C15.4247 14.5313 16.5186 12.1896 17.5781 9.94957C17.6634 9.81336 17.7142 9.72803 17.8864 9.72803H20.6367C20.7728 9.72803 20.8253 9.83141 20.74 9.96762L16.2103 18.7176ZM21.8322 21.504C21.8322 17.5213 24.4808 14.4099 28.6825 14.4099C29.0417 14.4099 29.2286 14.4099 29.5714 14.4443V9.9151C29.5714 9.81172 29.6567 9.74444 29.7419 9.74444H32.4414C32.5775 9.74444 32.6119 9.79531 32.6119 9.88064V25.5738C32.6119 26.0349 32.6119 26.6158 32.6972 27.2493C32.6972 27.3526 32.6628 27.3855 32.5611 27.438C31.1261 28.1223 29.6222 28.4292 28.1872 28.4292C24.4792 28.4439 21.8306 26.1547 21.8322 21.504ZM29.5697 17.1291C29.3303 17.0257 28.9892 16.9584 28.5792 16.9584C26.4259 16.9584 24.9236 18.6158 24.9236 21.3695C24.9236 24.5153 26.462 25.7805 28.3922 25.7805C28.8022 25.7805 29.2467 25.7297 29.5714 25.5918V17.1291H29.5697Z" fill="#FFD9F2"/>
</g>
</g>
<defs>
<clipPath id="clip0">
<rect width="40" height="40" fill="white" transform="translate(-0.00109863)"/>
</clipPath>
<clipPath id="clip1">
<rect width="41" height="40" fill="white" transform="translate(-0.00109863)"/>
</clipPath>
</defs>
</svg>
