<svg width="24" height="24" viewBox="0 0 24 24" fill="none" xmlns="http://www.w3.org/2000/svg">
<path d="M12 1.50012C6.20297 1.50012 1.5 6.20309 1.5 12.0001C1.5 17.7972 6.20297 22.5001 12 22.5001C17.797 22.5001 22.5 17.8023 22.5 12.0001C22.5 6.19793 17.797 1.50012 12 1.50012ZM18.6666 6.33997C19.8815 7.76817 20.6046 9.54938 20.7291 11.4203C18.8367 11.3218 16.5727 11.3218 14.7572 11.4915C14.5275 10.9117 14.2922 10.3431 14.0353 9.79606C16.1288 8.88856 17.7422 7.69606 18.6666 6.33997ZM12 3.24997C14.0395 3.24646 16.0156 3.95879 17.5837 5.26278C16.6322 6.46559 15.1392 7.51278 13.2797 8.30309C12.2625 6.422 11.092 4.8034 9.84375 3.52887C10.5482 3.34702 11.2725 3.25334 12 3.24997ZM8.04047 4.20715C9.30375 5.46481 10.4906 7.06653 11.5298 8.94153C9.55547 9.54481 7.29141 9.89075 4.875 9.89075C4.41563 9.89075 3.9675 9.87434 3.52453 9.84668C3.83266 8.63947 4.3949 7.51192 5.17367 6.53939C5.95244 5.56685 6.92981 4.77173 8.04047 4.20715ZM3.26625 11.5843C3.76406 11.6064 4.26703 11.6172 4.77562 11.612C7.53187 11.5792 10.0969 11.147 12.3009 10.4401C12.5088 10.8723 12.7056 11.3153 12.8916 11.769C12.6252 11.8273 12.3637 11.9057 12.1092 12.0034C9.09609 13.269 6.72281 15.3086 5.4375 17.7751C4.02813 16.1815 3.25007 14.1276 3.24984 12.0001C3.24984 11.8595 3.25547 11.7212 3.26625 11.5843ZM12 20.7503C10.056 20.7526 8.16724 20.1037 6.63516 18.9072C7.8 16.5995 9.87797 14.6884 12.4978 13.5039C12.7439 13.389 13.072 13.2962 13.4494 13.2142C13.7619 14.0779 14.0408 14.9748 14.2861 15.9048C14.6525 17.3085 14.9223 18.7355 15.0938 20.1761C14.1061 20.5545 13.0576 20.7491 12 20.7503ZM16.7306 19.3557C16.5595 17.9003 16.2871 16.4585 15.9155 15.0409C15.728 14.3298 15.5166 13.6407 15.2869 12.9681C17.0039 12.8275 19.0603 12.8476 20.6953 12.9681C20.5512 14.2607 20.1206 15.5048 19.4347 16.6099C18.7488 17.7149 17.825 18.653 16.7306 19.3557Z" fill="#092C4C"/>
</svg>
