<svg width="24" height="24" viewBox="0 0 24 24" fill="none" xmlns="http://www.w3.org/2000/svg">
<g clip-path="url(#clip0)">
<path d="M16 22.0001V18.1301C16.0375 17.6533 15.9731 17.1739 15.811 16.7239C15.6489 16.2739 15.3929 15.8635 15.06 15.5201C18.2 15.1701 21.5 13.9801 21.5 8.52012C21.4997 7.12395 20.9627 5.78132 20 4.77012C20.4559 3.54863 20.4236 2.19847 19.91 1.00012C19.91 1.00012 18.73 0.650121 16 2.48012C13.708 1.85894 11.292 1.85894 9 2.48012C6.27 0.650121 5.09 1.00012 5.09 1.00012C4.57638 2.19847 4.54414 3.54863 5 4.77012C4.03013 5.78882 3.49252 7.14358 3.5 8.55012C3.5 13.9701 6.8 15.1601 9.94 15.5501C9.611 15.8901 9.35726 16.2955 9.19531 16.74C9.03335 17.1846 8.96681 17.6582 9 18.1301V22.0001M9 19.0001C4 20.5001 4 16.5001 2 16.0001L9 19.0001Z" stroke="#092C4C" stroke-width="1.75" stroke-linecap="round" stroke-linejoin="round"/>
</g>
<defs>
<clipPath id="clip0">
<rect width="24" height="24" fill="white" transform="translate(0 0.00012207)"/>
</clipPath>
</defs>
</svg>
