<svg width="24" height="24" viewBox="0 0 24 24" fill="none" xmlns="http://www.w3.org/2000/svg">
<path d="M16.3748 3.24997C17.5342 3.25343 18.6451 3.71551 19.4648 4.53529C20.2846 5.35507 20.7467 6.46594 20.7502 7.62528V16.375C20.7467 17.5343 20.2846 18.6452 19.4648 19.465C18.6451 20.2847 17.5342 20.7468 16.3748 20.7503H7.62516C6.46582 20.7468 5.35495 20.2847 4.53517 19.465C3.71539 18.6452 3.25331 17.5343 3.24984 16.375V7.62528C3.25331 6.46594 3.71539 5.35507 4.53517 4.53529C5.35495 3.71551 6.46582 3.25343 7.62516 3.24997H16.3748ZM16.3748 1.50012H7.62516C4.25625 1.50012 1.5 4.25637 1.5 7.62528V16.375C1.5 19.7439 4.25625 22.5001 7.62516 22.5001H16.3748C19.7437 22.5001 22.5 19.7439 22.5 16.375V7.62528C22.5 4.25637 19.7437 1.50012 16.3748 1.50012Z" fill="#092C4C"/>
<path d="M17.6873 7.62533C17.4277 7.62533 17.1739 7.54836 16.9581 7.40414C16.7422 7.25992 16.574 7.05493 16.4747 6.81511C16.3753 6.57528 16.3493 6.31138 16.4 6.05678C16.4506 5.80218 16.5756 5.56831 16.7592 5.38476C16.9427 5.2012 17.1766 5.0762 17.4312 5.02556C17.6858 4.97491 17.9497 5.0009 18.1895 5.10024C18.4294 5.19958 18.6343 5.36781 18.7786 5.58365C18.9228 5.79949 18.9998 6.05325 18.9998 6.31283C19.0001 6.4853 18.9664 6.65614 18.9006 6.81554C18.8348 6.97495 18.7381 7.11979 18.6162 7.24174C18.4942 7.36369 18.3494 7.46035 18.19 7.52618C18.0306 7.59201 17.8597 7.6257 17.6873 7.62533Z" fill="#092C4C"/>
<path d="M12 8.49997C12.6923 8.49997 13.369 8.70525 13.9446 9.08985C14.5202 9.47445 14.9688 10.0211 15.2337 10.6607C15.4986 11.3002 15.568 12.004 15.4329 12.683C15.2978 13.3619 14.9645 13.9856 14.475 14.4751C13.9855 14.9646 13.3618 15.298 12.6828 15.433C12.0039 15.5681 11.3001 15.4988 10.6605 15.2338C10.021 14.9689 9.47433 14.5203 9.08973 13.9447C8.70513 13.3691 8.49984 12.6924 8.49984 12.0001C8.50084 11.0721 8.86992 10.1824 9.52611 9.52623C10.1823 8.87004 11.072 8.50096 12 8.49997ZM12 6.75012C10.9616 6.75012 9.94661 7.05803 9.08326 7.63491C8.2199 8.21178 7.54699 9.03172 7.14963 9.99103C6.75227 10.9503 6.64831 12.0059 6.85088 13.0243C7.05345 14.0427 7.55347 14.9782 8.28769 15.7124C9.02192 16.4467 9.95738 16.9467 10.9758 17.1492C11.9942 17.3518 13.0498 17.2479 14.0091 16.8505C14.9684 16.4531 15.7883 15.7802 16.3652 14.9169C16.9421 14.0535 17.25 13.0385 17.25 12.0001C17.25 10.6077 16.6969 9.27238 15.7123 8.28781C14.7277 7.30325 13.3924 6.75012 12 6.75012Z" fill="#092C4C"/>
</svg>
