<svg width="24" height="24" viewBox="0 0 24 24" fill="none" xmlns="http://www.w3.org/2000/svg">
<path d="M16 8.00015C17.5913 8.00015 19.1174 8.63229 20.2426 9.75751C21.3679 10.8827 22 12.4089 22 14.0002V21.0002H18V14.0002C18 13.4697 17.7893 12.961 17.4142 12.5859C17.0391 12.2109 16.5304 12.0002 16 12.0002C15.4696 12.0002 14.9609 12.2109 14.5858 12.5859C14.2107 12.961 14 13.4697 14 14.0002V21.0002H10V14.0002C10 12.4089 10.6321 10.8827 11.7574 9.75751C12.8826 8.63229 14.4087 8.00015 16 8.00015V8.00015Z" stroke="#092C4C" stroke-width="1.75" stroke-linecap="round" stroke-linejoin="round"/>
<path d="M6 9.00012H2V21.0001H6V9.00012Z" stroke="#092C4C" stroke-width="1.75" stroke-linecap="round" stroke-linejoin="round"/>
<path d="M4 6.00015C5.10457 6.00015 6 5.10472 6 4.00015C6 2.89558 5.10457 2.00015 4 2.00015C2.89543 2.00015 2 2.89558 2 4.00015C2 5.10472 2.89543 6.00015 4 6.00015Z" stroke="#092C4C" stroke-width="1.75" stroke-linecap="round" stroke-linejoin="round"/>
</svg>
