<svg width="24" height="24" viewBox="0 0 24 24" fill="none" xmlns="http://www.w3.org/2000/svg">
<path d="M21.1404 17.5313C20.396 16.7813 18.5932 15.6868 17.7185 15.2457C16.5795 14.672 16.4857 14.6251 15.5904 15.2903C14.9932 15.7342 14.5962 16.1307 13.8973 15.9817C13.1984 15.8326 11.6796 14.9921 10.3498 13.6665C9.01994 12.3409 8.13072 10.7781 7.98119 10.0815C7.83166 9.38494 8.23478 8.99259 8.67447 8.394C9.29416 7.55025 9.24728 7.40962 8.71759 6.27056C8.30462 5.38462 7.17822 3.59869 6.42541 2.85806C5.62009 2.06259 5.62009 2.20322 5.10119 2.41884C4.67874 2.59659 4.27345 2.81265 3.89041 3.06431C3.14041 3.56259 2.72416 3.9765 2.43306 4.59853C2.14197 5.22056 2.01119 6.67884 3.51447 9.40978C5.01775 12.1407 6.07244 13.5371 8.25541 15.714C10.4384 17.8909 12.117 19.0613 14.5709 20.4376C17.6065 22.1378 18.7709 21.8063 19.3948 21.5157C20.0187 21.2251 20.4345 20.8126 20.9337 20.0626C21.186 19.6802 21.4025 19.2754 21.5806 18.8532C21.7967 18.3362 21.9373 18.3362 21.1404 17.5313Z" stroke="#092C4C" stroke-width="1.75" stroke-miterlimit="10"/>
</svg>
