<svg width="24" height="24" viewBox="0 0 24 24" fill="none" xmlns="http://www.w3.org/2000/svg">
<path d="M23 3.00011C22.0424 3.67558 20.9821 4.19222 19.86 4.53011C19.2577 3.83762 18.4573 3.3468 17.567 3.12403C16.6767 2.90127 15.7395 2.9573 14.8821 3.28456C14.0247 3.61182 13.2884 4.19451 12.773 4.95382C12.2575 5.71314 11.9877 6.61244 12 7.53011V8.53011C10.2426 8.57568 8.50127 8.18592 6.93101 7.39555C5.36074 6.60519 4.01032 5.43874 3 4.00011C3 4.00011 -1 13.0001 8 17.0001C5.94053 18.3981 3.48716 19.099 1 19.0001C10 24.0001 21 19.0001 21 7.50011C20.9991 7.22156 20.9723 6.9437 20.92 6.67011C21.9406 5.6636 22.6608 4.39282 23 3.00011Z" stroke="#092C4C" stroke-width="1.75" stroke-linecap="round" stroke-linejoin="round"/>
</svg>
